# xmcd
# 
# Track frame offsets:
#     150
#     13119
#     26118
#     39014
#     50124
#     61487
#     76768
#     87824
#     98846
#     112189
#     125379
# 
# Disc length: 1909
# 
# Revision: 0
# Processed by: cddbd v1.5.2PL0 Copyright (c) Steve Scherf et al.
# Submitted via: fre:ac v1.0.31
# 
DISCID=8707730b
DTITLE=Amber Digby - Heroes, Mentors, and Friends: The Legends Project
DYEAR=2020
DGENRE=Country
TTITLE0=Texas Dancehall Girl (with Jerry Naill)
TTITLE1=You Go Around (with Johnny Rodriguez)
TTITLE2=It Wasn't God Who Made Honky Tonk Angels (with Loretta Lynn)
TTITLE3=I'm Hangin' Around (with The Whites)
TTITLE4=Today Is Not The Day (with Jeannie Seely)
TTITLE5=It Should Be Easier Now (with Willie Nelson)
TTITLE6=I'll Warm By The Flame (with Johnny Bush)
TTITLE7=The Heart He Kicks Around (with Jeannie C. Riley)
TTITLE8=Take Back It's Over (with Larry Gatlin)
TTITLE9=Soft Lights and Hard Country Music (with Moe Bandy)
TTITLE10=Under These Conditions (with Vince Gill)
EXTD=
EXTT0=
EXTT1=
EXTT2=
EXTT3=
EXTT4=
EXTT5=
EXTT6=
EXTT7=
EXTT8=
EXTT9=
EXTT10=
PLAYORDER=
